<svg width="16" height="16" viewBox="0 0 16 16" fill="none" xmlns="http://www.w3.org/2000/svg">
<path fill-rule="evenodd" clip-rule="evenodd" d="M5.52825 6.66341C6.21358 7.34874 7.0375 7.69141 8 7.69141C8.9625 7.69141 9.78642 7.34874 10.4718 6.66341C11.1573 5.97791 11.5 5.15391 11.5 4.19141C11.5 3.22891 11.1573 2.40499 10.4718 1.71966C9.78642 1.03416 8.9625 0.691406 8 0.691406C7.0375 0.691406 6.21358 1.03416 5.52825 1.71966C4.84275 2.40499 4.5 3.22891 4.5 4.19141C4.5 5.15391 4.84275 5.97791 5.52825 6.66341ZM0.5 13.0837V15.3069H2V13.8069V13.0837V13H2.00341C2.01746 12.8293 2.07499 12.6697 2.176 12.5212C2.29333 12.3488 2.45258 12.2082 2.65375 12.0992C3.51542 11.6748 4.39392 11.3533 5.28925 11.1347C6.18475 10.9162 7.08833 10.8069 8 10.8069C8.91167 10.8069 9.81525 10.9162 10.7107 11.1347C11.6061 11.3533 12.4846 11.6748 13.3462 12.0992C13.5474 12.2082 13.7067 12.3488 13.824 12.5212C13.925 12.6697 13.9825 12.8293 13.9966 13H14V13.0837V13.8069V15.3069H15.5V13.0837C15.5 12.594 15.367 12.1405 15.101 11.7232C14.835 11.3058 14.4795 10.985 14.0345 10.7607C13.0462 10.2762 12.0491 9.91274 11.0433 9.67041C10.0374 9.42807 9.023 9.30691 8 9.30691C6.977 9.30691 5.96258 9.42807 4.95675 9.67041C3.95092 9.91274 2.95383 10.2762 1.9655 10.7607C1.5205 10.985 1.165 11.3058 0.899 11.7232C0.633 12.1405 0.5 12.594 0.5 13.0837ZM9.4125 5.60391C9.02083 5.99557 8.55 6.19141 8 6.19141C7.45 6.19141 6.97917 5.99557 6.5875 5.60391C6.19583 5.21224 6 4.74141 6 4.19141C6 3.64141 6.19583 3.17057 6.5875 2.77891C6.97917 2.38724 7.45 2.19141 8 2.19141C8.55 2.19141 9.02083 2.38724 9.4125 2.77891C9.80417 3.17057 10 3.64141 10 4.19141C10 4.74141 9.80417 5.21224 9.4125 5.60391Z" fill="#1D1D1D"/>
</svg>
